<svg width="986" height="310" viewBox="0 0 986 310" fill="none" xmlns="http://www.w3.org/2000/svg">
<path d="M0 310V15.1748H188.872V59.9456H53.4083V139.986H175.916V184.757H53.4083V310H0Z" fill="black"/>
<path d="M491.501 310V15.1748H602.06C624.71 15.1748 643.712 19.1096 659.068 26.9793C674.519 34.849 686.18 45.8858 694.049 60.0896C702.015 74.1974 705.998 90.6566 705.998 109.467C705.998 128.373 701.967 144.785 693.905 158.701C685.94 172.52 674.183 183.221 658.636 190.803C643.088 198.289 623.99 202.032 601.341 202.032H522.596V157.693H594.143C607.387 157.693 618.232 155.869 626.677 152.222C635.123 148.48 641.361 143.057 645.392 135.955C649.518 128.757 651.582 119.928 651.582 109.467C651.582 99.0061 649.518 90.0808 645.392 82.6909C641.265 75.2051 634.979 69.5428 626.533 65.7039C618.088 61.7691 607.195 59.8017 593.855 59.8017H544.909V310H491.501ZM643.808 176.407L716.795 310H657.196L585.505 176.407H643.808Z" fill="black"/>
<path d="M985.517 15.1748V310H938.011L799.092 109.179H796.644V310H743.236V15.1748H791.03L929.805 216.14H932.396V15.1748H985.517Z" fill="black"/>
<path fill-rule="evenodd" clip-rule="evenodd" d="M371.696 2.69907C364.371 11.078 357.871 39.3965 357.878 62.9026C357.881 75.9361 358.784 83.2521 361.852 95.1112C362.914 99.2159 363.608 103.458 363.395 104.538C362.811 107.499 358.07 120.38 357.7 120.009C357.523 119.831 356.844 116.366 356.191 112.308C354.771 103.482 350.596 90.5714 346.848 83.414C338.332 67.1517 319.286 47.8611 307.135 43.1909C292.274 37.4789 295.91 50.613 318.839 85.4785C328.323 99.9001 336.277 109.842 346.501 120.053L354.546 128.088L353.448 131.431C351.693 136.77 340.985 157.517 334.726 167.705C328.551 177.755 327.872 178.03 327.75 170.527C327.592 160.863 323.689 145.893 318.781 136.132C309.417 117.511 290.564 97.2236 280.937 95.4097C271.312 93.5966 274.002 104.945 290.606 136.198C300.58 154.973 310.292 169.215 322.372 182.783C323.828 184.419 323.799 184.491 319.368 190.246C312.93 198.606 303.023 210.007 295.888 217.268C285.524 227.814 286.642 228.552 286.595 211.124C286.559 197.319 286.38 195.408 284.462 188.29C281.975 179.061 275.415 165.001 269.236 155.656C260.992 143.189 250.351 134.528 246.857 137.44C243.758 140.023 245.326 150.299 251.784 169.724C259.985 194.392 266.285 208.508 276.026 224.043L280.644 231.409L278.947 233.26C275.44 237.085 251.883 255.336 243.939 260.382L241.912 261.67L241.775 252.824C241.636 243.839 241.412 241.555 239.986 234.551C236.375 216.811 225.11 196.817 211.419 183.844C202.912 175.783 196.836 173.835 195.165 178.632C193.733 182.75 198.591 197.808 208.774 220.804C214.6 233.961 219.927 243.709 227.409 254.904C233.38 263.84 234.525 266.012 233.689 266.827C228.958 271.447 187.055 293.587 166.578 302.288C160.34 304.938 154.005 307.662 152.499 308.34L149.762 309.574L152.89 309.139C164.83 307.474 191.978 299.235 209.595 291.93L219.372 287.875L226.02 290.758C240.615 297.089 256.809 301.786 275.685 305.161C303.593 310.153 319.132 311.268 323.231 308.574C326.508 306.42 325.943 304.288 320.795 299.382C313.07 292.02 297.565 284.966 279.205 280.463C272.929 278.923 269.769 278.644 258.869 278.665C250.308 278.682 243.989 279.102 240.098 279.913C236.872 280.587 234.132 281.042 234.009 280.926C233.887 280.81 237.579 278.635 242.214 276.094C246.849 273.553 255.875 267.992 262.272 263.738L273.902 256.004L283.46 258.874C302.33 264.542 320.148 267.248 347.691 268.626C361.92 269.337 373.662 268.737 377.152 267.119C385.896 263.065 372.613 252.811 350.356 246.434C329.331 240.409 306.978 240.676 287.905 247.18C286.017 247.824 284.334 248.213 284.165 248.044C283.997 247.875 285.892 246.076 288.376 244.046C290.86 242.016 298.045 235.208 304.343 228.917L315.793 217.478L323.114 218.723C345.001 222.442 370.38 222.474 400.828 218.819C411.749 217.509 417.393 215.993 419.82 213.722C421.958 211.722 421.965 211.328 419.909 208.704C414.644 201.98 392.974 196.454 371.888 196.456C356.451 196.458 342.218 199.811 328.609 206.651C325.311 208.308 322.496 209.549 322.352 209.407C322.209 209.266 324.176 206.381 326.724 202.997C332.289 195.606 336.463 189.366 340.941 181.743L344.275 176.07L361.279 176.059C381.818 176.046 394.162 174.631 420.18 169.309C444.107 164.415 451.295 160.22 445.171 154.724C436.619 147.05 404.373 145.333 381.665 151.344C373.8 153.425 361.461 158.957 354.032 163.73C351.576 165.308 349.409 166.599 349.217 166.599C349.025 166.599 349.527 165.449 350.332 164.046C351.533 161.953 359.202 142.999 360.795 138.19C361.117 137.217 362.591 136.75 366.558 136.363C384.843 134.581 399.161 131.34 421.655 123.89C440.038 117.803 449.437 113.967 454.91 110.318C461.372 106.01 461.378 103.413 454.933 100.488C451.192 98.7901 449.871 98.6518 437.587 98.6667C422.882 98.6848 415.698 99.7665 402.81 103.904C390.594 107.827 380.465 113.435 370.004 122.068C364.47 126.634 364.236 126.745 364.803 124.532C365.128 123.257 366.253 118.148 367.301 113.179C368.35 108.211 370.565 100.951 372.225 97.0469C375.741 88.7755 379.615 75.5456 381.302 66.0449C383.31 54.7326 384.294 33.3649 383.342 21.7313C381.749 2.2568 377.768 -4.24778 371.696 2.69907Z" fill="#85CB33"/>
</svg>
