<svg width="143" height="50" viewBox="0 0 143 50" fill="none" xmlns="http://www.w3.org/2000/svg">
<rect width="50" height="50" rx="10" fill="#85CB33"/>
<path fill-rule="evenodd" clip-rule="evenodd" d="M32.0174 7.7826C31.2495 8.66104 30.5681 11.6299 30.5687 14.0943C30.5691 15.4607 30.6638 16.2277 30.9854 17.471C31.0967 17.9013 31.1695 18.346 31.1472 18.4593C31.086 18.7697 30.5889 20.1201 30.5501 20.0813C30.5316 20.0626 30.4603 19.6993 30.3919 19.2739C30.243 18.3485 29.8053 16.995 29.4124 16.2446C28.5196 14.5397 26.5229 12.5173 25.2489 12.0277C23.691 11.4289 24.0721 12.8058 26.476 16.4611C27.4703 17.973 28.3042 19.0153 29.3761 20.0859L30.2194 20.9282L30.1043 21.2787C29.9204 21.8385 28.7977 24.0136 28.1415 25.0816C27.4941 26.1353 27.4229 26.1641 27.4102 25.3774C27.3937 24.3643 26.9844 22.7948 26.4699 21.7715C25.4882 19.8194 23.5116 17.6924 22.5023 17.5023C21.4933 17.3122 21.7753 18.5019 23.5161 21.7785C24.5617 23.7468 25.5799 25.2399 26.8463 26.6624C26.999 26.8339 26.996 26.8414 26.5314 27.4448C25.8565 28.3213 24.8179 29.5165 24.0698 30.2778C22.9832 31.3834 23.1004 31.4608 23.0956 29.6336C23.0917 28.1863 23.073 27.986 22.872 27.2397C22.6112 26.2722 21.9234 24.7981 21.2756 23.8185C20.4114 22.5114 19.2958 21.6033 18.9295 21.9086C18.6046 22.1795 18.769 23.2568 19.446 25.2933C20.3058 27.8794 20.9663 29.3593 21.9875 30.988L22.4717 31.7602L22.2937 31.9543C21.9261 32.3554 19.4564 34.2687 18.6235 34.7978L18.411 34.9328L18.3967 34.0053C18.3821 33.0634 18.3586 32.824 18.2092 32.0897C17.8306 30.2298 16.6496 28.1336 15.2142 26.7736C14.3223 25.9285 13.6853 25.7242 13.5102 26.2272C13.36 26.6589 13.8693 28.2376 14.9369 30.6484C15.5477 32.0278 16.1062 33.0497 16.8906 34.2234C17.5166 35.1603 17.6366 35.388 17.549 35.4735C17.053 35.9577 12.6599 38.2789 10.5131 39.1911C9.85914 39.4689 9.19496 39.7545 9.03712 39.8256L8.75012 39.955L9.07811 39.9093C10.3298 39.7348 13.176 38.871 15.023 38.1052L16.0479 37.6801L16.7449 37.9824C18.2751 38.6461 19.9729 39.1384 21.9518 39.4923C24.8776 40.0156 26.5067 40.1326 26.9365 39.8501C27.28 39.6244 27.2207 39.4008 26.681 38.8865C25.8711 38.1146 24.2456 37.3751 22.3208 36.903C21.6628 36.7415 21.3316 36.7123 20.1888 36.7145C19.2913 36.7163 18.6288 36.7603 18.2209 36.8454C17.8826 36.916 17.5954 36.9638 17.5825 36.9516C17.5697 36.9394 17.9568 36.7114 18.4427 36.445C18.9286 36.1785 19.875 35.5956 20.5455 35.1496L21.7648 34.3387L22.7669 34.6397C24.7451 35.2339 26.6132 35.5175 29.5008 35.662C30.9925 35.7366 32.2235 35.6737 32.5895 35.504C33.5061 35.0791 32.1136 34.004 29.7801 33.3354C27.576 32.7038 25.2325 32.7318 23.2328 33.4137C23.0349 33.4812 22.8585 33.522 22.8408 33.5043C22.8232 33.4866 23.0219 33.298 23.2823 33.0851C23.5427 32.8723 24.296 32.1585 24.9562 31.499L26.1567 30.2998L26.9242 30.4302C29.2188 30.8202 31.8795 30.8236 35.0716 30.4404C36.2165 30.303 36.8083 30.1441 37.0627 29.906C37.2868 29.6963 37.2876 29.655 37.0721 29.3799C36.5201 28.675 34.2482 28.0956 32.0375 28.0958C30.4192 28.096 28.927 28.4475 27.5002 29.1646C27.1545 29.3384 26.8594 29.4684 26.8443 29.4536C26.8293 29.4388 27.0355 29.1364 27.3027 28.7816C27.8861 28.0067 28.3237 27.3525 28.7931 26.5533L29.1426 25.9585L30.9253 25.9575C33.0786 25.9561 34.3728 25.8078 37.1004 25.2498C39.6089 24.7367 40.3625 24.2969 39.7204 23.7207C38.8239 22.9161 35.4433 22.7362 33.0625 23.3664C32.238 23.5846 30.9444 24.1644 30.1655 24.6649C29.9081 24.8303 29.6809 24.9656 29.6608 24.9656C29.6407 24.9656 29.6932 24.8451 29.7777 24.698C29.9036 24.4786 30.7076 22.4915 30.8746 21.9873C30.9084 21.8852 31.0628 21.8363 31.4787 21.7958C33.3958 21.6089 34.8968 21.2691 37.2551 20.4881C39.1824 19.8499 40.1677 19.4478 40.7415 19.0653C41.4189 18.6136 41.4196 18.3413 40.7439 18.0347C40.3516 17.8567 40.2132 17.8422 38.9254 17.8437C37.3837 17.8456 36.6306 17.959 35.2794 18.3928C33.9987 18.804 32.9367 19.392 31.84 20.297C31.2599 20.7758 31.2354 20.7874 31.2947 20.5554C31.3288 20.4217 31.4468 19.8861 31.5567 19.3652C31.6666 18.8443 31.8989 18.0832 32.0729 17.6739C32.4416 16.8067 32.8476 15.4197 33.0245 14.4237C33.235 13.2377 33.3382 10.9976 33.2384 9.77791C33.0714 7.73623 32.654 7.0543 32.0174 7.7826Z" fill="white"/>
<path d="M63.2955 36.5V13.2273H78.2045V16.7614H67.5114V23.0795H77.1818V26.6136H67.5114V36.5H63.2955ZM89.1705 36.8182C87.5341 36.8182 86.0795 36.5379 84.8068 35.9773C83.5417 35.4167 82.5417 34.6364 81.8068 33.6364C81.072 32.6364 80.6818 31.4811 80.6364 30.1705H84.9091C84.947 30.7992 85.1553 31.3485 85.5341 31.8182C85.9129 32.2803 86.4167 32.6402 87.0455 32.8977C87.6742 33.1553 88.3788 33.2841 89.1591 33.2841C89.9924 33.2841 90.7311 33.1402 91.375 32.8523C92.0189 32.5568 92.5227 32.1477 92.8864 31.625C93.25 31.1023 93.428 30.5 93.4205 29.8182C93.428 29.1136 93.2462 28.4924 92.875 27.9545C92.5038 27.4167 91.9659 26.9962 91.2614 26.6932C90.5644 26.3902 89.7235 26.2386 88.7386 26.2386H86.6818V22.9886H88.7386C89.5492 22.9886 90.2576 22.8485 90.8636 22.5682C91.4773 22.2879 91.9583 21.8939 92.3068 21.3864C92.6553 20.8712 92.8258 20.2765 92.8182 19.6023C92.8258 18.9432 92.678 18.3712 92.375 17.8864C92.0795 17.3939 91.6591 17.0114 91.1136 16.7386C90.5758 16.4659 89.9432 16.3295 89.2159 16.3295C88.5038 16.3295 87.8447 16.4583 87.2386 16.7159C86.6326 16.9735 86.1439 17.3409 85.7727 17.8182C85.4015 18.2879 85.2045 18.8485 85.1818 19.5H81.125C81.1553 18.197 81.5303 17.053 82.25 16.0682C82.9773 15.0758 83.947 14.303 85.1591 13.75C86.3712 13.1894 87.7311 12.9091 89.2386 12.9091C90.7917 12.9091 92.1402 13.2008 93.2841 13.7841C94.4356 14.3598 95.3258 15.1364 95.9545 16.1136C96.5833 17.0909 96.8977 18.1705 96.8977 19.3523C96.9053 20.6629 96.5189 21.7614 95.7386 22.6477C94.9659 23.5341 93.9508 24.1136 92.6932 24.3864V24.5682C94.3295 24.7955 95.5833 25.4015 96.4545 26.3864C97.3333 27.3636 97.7689 28.5795 97.7614 30.0341C97.7614 31.3371 97.3902 32.5038 96.6477 33.5341C95.9129 34.5568 94.8977 35.3598 93.6023 35.9432C92.3144 36.5265 90.8371 36.8182 89.1705 36.8182ZM100.889 36.5V13.2273H109.616C111.404 13.2273 112.904 13.5379 114.116 14.1591C115.336 14.7803 116.257 15.6515 116.878 16.7727C117.507 17.8864 117.821 19.1856 117.821 20.6705C117.821 22.1629 117.503 23.4583 116.866 24.5568C116.238 25.6477 115.31 26.4924 114.082 27.0909C112.855 27.6818 111.348 27.9773 109.56 27.9773H103.344V24.4773H108.991C110.037 24.4773 110.893 24.3333 111.56 24.0455C112.226 23.75 112.719 23.322 113.037 22.7614C113.363 22.1932 113.526 21.4962 113.526 20.6705C113.526 19.8447 113.363 19.1402 113.037 18.5568C112.711 17.9659 112.215 17.5189 111.548 17.2159C110.882 16.9053 110.022 16.75 108.969 16.75H105.105V36.5H100.889ZM112.912 25.9545L118.673 36.5H113.969L108.31 25.9545H112.912ZM139.827 13.2273V36.5H136.077L125.111 20.6477H124.918V36.5H120.702V13.2273H124.474L135.429 29.0909H135.634V13.2273H139.827Z" fill="#1E1E1E"/>
</svg>
