<svg width="127" height="118" viewBox="0 0 127 118" fill="none" xmlns="http://www.w3.org/2000/svg">
<path d="M31.0744 54.4375C35.944 54.4375 40.3363 51.7429 43.345 47.9125C48.0349 41.9289 53.9222 36.9903 60.6302 33.4125C64.9984 31.0925 68.7865 27.6367 70.6171 23.051C71.9028 19.8384 72.5631 16.4097 72.5625 12.9494V9.125C72.5625 7.92324 73.0399 6.7707 73.8897 5.92092C74.7395 5.07115 75.892 4.59375 77.0938 4.59375C80.6991 4.59375 84.1567 6.02594 86.706 8.57527C89.2553 11.1246 90.6875 14.5822 90.6875 18.1875C90.6875 25.1475 89.1167 31.739 86.3194 37.6296C84.7123 41.0008 86.9659 45.375 90.6996 45.375H109.586C115.785 45.375 121.337 49.5679 121.995 55.7365C122.267 58.286 122.406 60.8719 122.406 63.5C122.431 80.0321 116.782 96.072 106.402 108.939C104.058 111.851 100.439 113.344 96.705 113.344H72.4417C69.5236 113.344 66.6175 112.872 63.8444 111.954L45.0306 105.671C42.2581 104.749 39.3552 104.28 36.4334 104.281H26.67M77.0938 45.375H90.6875M26.67 104.281C27.1715 105.52 27.7152 106.728 28.3013 107.918C29.4915 110.335 27.83 113.344 25.1415 113.344H19.6556C14.2846 113.344 9.30627 110.214 7.74148 105.079C5.64891 98.2109 4.5881 91.0702 4.59377 83.8906C4.59377 74.5079 6.37606 65.5481 9.6144 57.3194C11.4631 52.6431 16.1756 49.9062 21.2084 49.9062H27.5702C30.4219 49.9062 32.0713 53.2654 30.5911 55.7062C25.4308 64.2005 22.7093 73.9518 22.7248 83.8906C22.7248 91.1044 24.1265 97.9858 26.6761 104.281H26.67Z" stroke="black" stroke-width="9.0625" stroke-linecap="round" stroke-linejoin="round"/>
</svg>
