<svg width="21" height="17" viewBox="0 0 21 17" fill="none" xmlns="http://www.w3.org/2000/svg">
<path d="M20.2493 2.86287C19.5222 3.18448 18.7512 3.3957 17.9617 3.48953C18.7938 2.99185 19.4166 2.20859 19.7141 1.28572C18.9331 1.75049 18.0769 2.0762 17.1845 2.25239C16.5851 1.61104 15.7906 1.18569 14.9245 1.04247C14.0584 0.899254 13.1692 1.04619 12.3953 1.46044C11.6213 1.87469 11.0059 2.53304 10.6446 3.33315C10.2834 4.13325 10.1967 5.03028 10.3979 5.88477C8.81416 5.8054 7.26485 5.39384 5.85052 4.67683C4.43619 3.95982 3.18846 2.95339 2.18834 1.72287C1.83433 2.33092 1.6483 3.02213 1.64929 3.72572C1.64929 5.10668 2.35215 6.32668 3.42072 7.04096C2.78835 7.02105 2.1699 6.85028 1.61691 6.54287V6.59239C1.6171 7.51211 1.93536 8.40345 2.51772 9.1153C3.10008 9.82716 3.91071 10.3157 4.81215 10.4981C4.22512 10.6572 3.60959 10.6806 3.01215 10.5667C3.26631 11.3583 3.76168 12.0507 4.42891 12.5468C5.09613 13.0429 5.9018 13.3179 6.7331 13.3333C5.9069 13.9822 4.96089 14.4619 3.94918 14.7449C2.93747 15.028 1.87989 15.1088 0.836914 14.9829C2.65758 16.1538 4.77701 16.7754 6.94168 16.7733C14.2683 16.7733 18.275 10.7038 18.275 5.44001C18.275 5.26858 18.2702 5.09525 18.2626 4.92572C19.0425 4.36207 19.7156 3.66384 20.2502 2.86382L20.2493 2.86287Z" fill="#6D6D6D"/>
</svg>
