<svg width="20" height="20" viewBox="0 0 20 20" fill="#6D6D6D" xmlns="http://www.w3.org/2000/svg">
<path d="M1.72769 5.62857C2.52008 4.05071 3.73566 2.7243 5.23858 1.79759C6.74149 0.870881 8.47251 0.380395 10.2382 0.380951C12.8048 0.380951 14.961 1.32381 16.6096 2.8619L13.8791 5.59333C12.8915 4.64952 11.6363 4.16857 10.2382 4.16857C7.75721 4.16857 5.65721 5.84476 4.9096 8.09524C4.71912 8.66667 4.61055 9.27619 4.61055 9.90476C4.61055 10.5333 4.71912 11.1429 4.9096 11.7143C5.65817 13.9657 7.75721 15.641 10.2382 15.641C11.5191 15.641 12.6096 15.3029 13.4629 14.7314C13.9576 14.4057 14.3811 13.9831 14.7079 13.489C15.0346 12.995 15.2578 12.4399 15.3639 11.8571H10.2382V8.17333H19.2077C19.3201 8.79619 19.381 9.44571 19.381 10.121C19.381 13.0219 18.3429 15.4638 16.541 17.121C14.9658 18.5762 12.8096 19.4286 10.2382 19.4286C8.98734 19.4291 7.74868 19.1831 6.59297 18.7046C5.43726 18.2262 4.38717 17.5247 3.5027 16.6402C2.61823 15.7558 1.91673 14.7057 1.43829 13.55C0.959854 12.3942 0.713856 11.1556 0.714356 9.90476C0.714356 8.36762 1.08198 6.91429 1.72769 5.62857Z" fill="#6D6D6D"/>
</svg>
