<svg width="20" height="20" viewBox="0 0 20 20" fill="#6D6D6D" xmlns="http://www.w3.org/2000/svg">
<path d="M9.90467 7.04762C9.14691 7.04762 8.42018 7.34864 7.88436 7.88446C7.34855 8.42027 7.04753 9.147 7.04753 9.90476C7.04753 10.6625 7.34855 11.3892 7.88436 11.9251C8.42018 12.4609 9.14691 12.7619 9.90467 12.7619C10.6624 12.7619 11.3892 12.4609 11.925 11.9251C12.4608 11.3892 12.7618 10.6625 12.7618 9.90476C12.7618 9.147 12.4608 8.42027 11.925 7.88446C11.3892 7.34864 10.6624 7.04762 9.90467 7.04762ZM9.90467 5.14286C11.1676 5.14286 12.3788 5.64456 13.2718 6.53759C14.1649 7.43062 14.6666 8.64182 14.6666 9.90476C14.6666 11.1677 14.1649 12.3789 13.2718 13.2719C12.3788 14.165 11.1676 14.6667 9.90467 14.6667C8.64173 14.6667 7.43052 14.165 6.53749 13.2719C5.64446 12.3789 5.14276 11.1677 5.14276 9.90476C5.14276 8.64182 5.64446 7.43062 6.53749 6.53759C7.43052 5.64456 8.64173 5.14286 9.90467 5.14286ZM16.0951 4.90476C16.0951 5.22049 15.9697 5.5233 15.7465 5.74655C15.5232 5.96981 15.2204 6.09524 14.9047 6.09524C14.5889 6.09524 14.2861 5.96981 14.0629 5.74655C13.8396 5.5233 13.7142 5.22049 13.7142 4.90476C13.7142 4.58903 13.8396 4.28622 14.0629 4.06297C14.2861 3.83971 14.5889 3.71428 14.9047 3.71428C15.2204 3.71428 15.5232 3.83971 15.7465 4.06297C15.9697 4.28622 16.0951 4.58903 16.0951 4.90476ZM9.90467 2.28571C7.54848 2.28571 7.16372 2.29238 6.06753 2.34095C5.32086 2.37619 4.81991 2.47619 4.35514 2.65714C3.94181 2.81714 3.64372 3.00857 3.32657 3.32667C3.02848 3.61466 2.79929 3.96627 2.6561 4.35524C2.47515 4.8219 2.37515 5.3219 2.34086 6.06762C2.29134 7.11905 2.28562 7.48667 2.28562 9.90476C2.28562 12.261 2.29229 12.6457 2.34086 13.7419C2.3761 14.4876 2.4761 14.9895 2.6561 15.4533C2.818 15.8676 3.00848 16.1657 3.32467 16.4819C3.64562 16.8019 3.94372 16.9933 4.35324 17.1514C4.82372 17.3333 5.32467 17.4343 6.06753 17.4686C7.11895 17.5181 7.48657 17.5238 9.90467 17.5238C12.2609 17.5238 12.6456 17.5171 13.7418 17.4686C14.4866 17.4333 14.9885 17.3333 15.4532 17.1533C15.8656 16.9924 16.1656 16.801 16.4818 16.4848C16.8028 16.1638 16.9942 15.8657 17.1523 15.4562C17.3332 14.9867 17.4342 14.4848 17.4685 13.7419C17.518 12.6905 17.5237 12.3229 17.5237 9.90476C17.5237 7.54857 17.517 7.16381 17.4685 6.06762C17.4332 5.32286 17.3332 4.82 17.1523 4.35524C17.0088 3.96667 16.78 3.6152 16.4828 3.32667C16.1949 3.02842 15.8432 2.79921 15.4542 2.65619C14.9875 2.47524 14.4866 2.37524 13.7418 2.34095C12.6904 2.29143 12.3228 2.28571 9.90467 2.28571ZM9.90467 0.380951C12.4923 0.380951 12.8151 0.390475 13.8304 0.438094C14.8447 0.485713 15.5351 0.644761 16.1428 0.880951C16.7713 1.12286 17.3009 1.45047 17.8304 1.97905C18.3147 2.45514 18.6894 3.03104 18.9285 3.66667C19.1637 4.27333 19.3237 4.96476 19.3713 5.97905C19.4161 6.99428 19.4285 7.31714 19.4285 9.90476C19.4285 12.4924 19.419 12.8152 19.3713 13.8305C19.3237 14.8448 19.1637 15.5352 18.9285 16.1429C18.6901 16.7788 18.3153 17.3549 17.8304 17.8305C17.3542 18.3146 16.7783 18.6893 16.1428 18.9286C15.5361 19.1638 14.8447 19.3238 13.8304 19.3714C12.8151 19.4162 12.4923 19.4286 9.90467 19.4286C7.31705 19.4286 6.99419 19.419 5.97895 19.3714C4.96467 19.3238 4.27419 19.1638 3.66657 18.9286C3.03069 18.69 2.45469 18.3152 1.97895 17.8305C1.49458 17.3545 1.11984 16.7785 0.880859 16.1429C0.644669 15.5362 0.485621 14.8448 0.438002 13.8305C0.39324 12.8152 0.380859 12.4924 0.380859 9.90476C0.380859 7.31714 0.390383 6.99428 0.438002 5.97905C0.485621 4.96381 0.644669 4.27428 0.880859 3.66667C1.11918 3.03065 1.49401 2.45459 1.97895 1.97905C2.45483 1.4945 3.03079 1.11974 3.66657 0.880951C4.27419 0.644761 4.96372 0.485713 5.97895 0.438094C6.99419 0.393332 7.31705 0.380951 9.90467 0.380951Z" fill="#6D6D6D"/>
</svg>
